#N canvas -926 -1055 1071 912 12;
#X obj 30 130 p_notein;
#X obj 30 189 p_noteclean;
#X obj 242 592 *~;
#X obj 381 249 >~;
#X obj 592 149 loadbang;
#X obj 592 197 sig~;
#X msg 592 172 0;
#X obj 574 675 p_sigrapher;
#X obj 340 180 osc~ 1;
#X obj 264 455 *~;
#X obj 264 490 osc~;
#X obj 381 282 +~ 1;
#X obj 264 405 sig~;
#X obj 382 461 vline~;
#X msg 382 433 \$1 \$2;
#X obj 382 405 pack f f;
#X obj 379 312 env~;
#X floatatom 381 380 5 0 0 0 - - - 0 0 1, f 5;
#X obj 381 348 expr (($f1) - 94) / 6;
#X obj 814 465 bp~;
#X obj 843 433 hsl 128 15 0 1 0 0 empty empty empty -2 -8 0 10 #fcfcfc
#000000 #000000 0 1 0 1;
#X obj 827 408 hsl 128 15 0 127 0 0 empty empty empty -2 -8 0 10 #fcfcfc
#000000 #000000 0 1 0 1;
#X obj 134 385 s~ env;
#X obj 263 564 r~ env;
#X obj 242 529 max~;
#X obj 286 529 min~;
#X obj 571 290 +~ 1;
#X obj 572 469 vline~;
#X msg 572 441 \$1 \$2;
#X obj 572 413 pack f f;
#X obj 569 320 env~;
#X floatatom 571 388 5 0 0 0 - - - 0 0 1, f 5;
#X obj 571 356 expr (($f1) - 94) / 6;
#X obj 571 257 <~;
#X obj 348 504 *~;
#X obj 344 539 osc~;
#X obj 242 619 hip~ 10;
#X obj 523 590 flatgui/knob 32 32 0 1 0 0 empty empty empty -2 -8 0
8 #fcfcfc #000000 #000000 0.409449 1 1 2 3 4;
#X obj 502 647 *~;
#X msg 656 97 96 3 1 0 1 21;
#X obj 456 31 p_ctlins;
#X obj 256 34 p_ctlins;
#X obj 523 520 p_ctlins;
#X obj 794 15 bng 40 250 50 0 empty empty empty 17 7 0 10 #fc0400 #000000
#000000 1;
#X obj 844 15 bng 40 250 50 0 empty empty empty 17 7 0 10 #00fc04 #000000
#000000 1;
#X msg 795 70 0;
#X msg 846 71 1;
#N canvas 173 611 591 331 dsp 0;
#X obj 101 101 cnv 15 57 57 empty \$0canv empty 20 12 0 14 #d8fcd8
#fcfcfc 0;
#X obj 114 114 tgl 30 0 empty empty ON 7 15 0 14 #14e814 #14e814 #fcfcfc
1 1 1;
#X obj 214 139 select 1;
#X msg 236 64 label OFF \, color 13 13 0 \, label_pos 4 15;
#X msg 235 43 label ON \, color 16 16 0 \, label_pos 7 15;
#X msg 247 173 color 6;
#X msg 366 174 color 3;
#X obj 295 237 s \$0canv;
#X obj 29 193 print;
#X obj 114 202 outlet;
#X obj 66 15 inlet;
#X obj 150 27 select 0 1;
#X msg 113 59 0;
#X msg 148 59 1;
#X connect 1 0 2 0;
#X connect 1 0 8 0;
#X connect 1 0 9 0;
#X connect 2 0 4 0;
#X connect 2 0 5 0;
#X connect 2 1 3 0;
#X connect 2 1 6 0;
#X connect 3 0 1 0;
#X connect 4 0 1 0;
#X connect 5 0 7 0;
#X connect 6 0 7 0;
#X connect 10 0 11 0;
#X connect 11 0 3 0;
#X connect 11 0 12 0;
#X connect 11 1 4 0;
#X connect 11 1 13 0;
#X connect 12 0 1 0;
#X connect 13 0 1 0;
#X coords 0 -1 1 1 59 59 2 100 100;
#X restore 795 98 pd dsp;
#X obj 795 162 switch~;
#X obj 698 189 p_ctlinS;
#X msg 892 190 56 1 1 1 1 0, f 4;
#X msg 721 556 87 3 1 1 1 0.409449;
#X obj 495 734 dac~ 1 2;
#X text 654 275 DAS SCHWARZE AUGE;
#X text 654 255 *** EÖE ***;
#X text 654 295 https://github.com/puebloDeLaMuerte/synth_tonio;
#X text 654 315 (Kettenkarousel);
#X msg 444 105 95 3 1 1 4.25 0;
#X obj 134 255 p_envelopS;
#X msg 280 240 14 1 37 176 0.02 791, f 2;
#X obj 256 101 exp;
#X obj 256 130 - 1;
#X floatatom 256 159 5 0 0 0 - - - 0 0 1, f 5;
#X connect 0 0 1 0;
#X connect 0 1 1 1;
#X connect 0 2 1 2;
#X connect 1 0 12 0;
#X connect 1 2 58 1;
#X connect 1 3 58 2;
#X connect 2 0 36 0;
#X connect 3 0 11 0;
#X connect 4 0 6 0;
#X connect 5 0 3 1;
#X connect 5 0 33 1;
#X connect 6 0 5 0;
#X connect 8 0 3 0;
#X connect 8 0 33 0;
#X connect 9 0 10 0;
#X connect 10 0 24 0;
#X connect 11 0 16 0;
#X connect 12 0 9 0;
#X connect 12 0 34 0;
#X connect 13 0 9 1;
#X connect 14 0 13 0;
#X connect 15 0 14 0;
#X connect 16 0 18 0;
#X connect 17 0 15 0;
#X connect 18 0 17 0;
#X connect 20 0 19 2;
#X connect 21 0 19 1;
#X connect 23 0 2 1;
#X connect 24 0 2 0;
#X connect 26 0 30 0;
#X connect 27 0 34 1;
#X connect 28 0 27 0;
#X connect 29 0 28 0;
#X connect 30 0 32 0;
#X connect 31 0 29 0;
#X connect 32 0 31 0;
#X connect 33 0 26 0;
#X connect 34 0 35 0;
#X connect 35 0 24 1;
#X connect 36 0 38 0;
#X connect 37 0 38 1;
#X connect 38 0 52 0;
#X connect 38 0 52 1;
#X connect 38 0 7 0;
#X connect 39 0 40 1;
#X connect 40 0 15 1;
#X connect 40 0 29 1;
#X connect 40 1 39 0;
#X connect 41 0 60 0;
#X connect 41 1 57 0;
#X connect 42 0 37 0;
#X connect 42 1 51 0;
#X connect 43 0 45 0;
#X connect 44 0 46 0;
#X connect 45 0 47 0;
#X connect 46 0 47 0;
#X connect 47 0 48 0;
#X connect 49 0 47 0;
#X connect 49 1 50 0;
#X connect 50 0 49 1;
#X connect 51 0 42 1;
#X connect 57 0 41 1;
#X connect 58 0 22 0;
#X connect 58 1 59 0;
#X connect 59 0 58 9;
#X connect 60 0 61 0;
#X connect 61 0 62 0;
#X connect 62 0 8 0;
